<svg width="24" height="20" viewBox="0 0 24 20" fill="none" xmlns="http://www.w3.org/2000/svg">
<path d="M9.118 19.0191H14.6126V12.0866C14.6126 11.6486 14.3269 11.3629 13.8889 11.3629H9.85124C9.40368 11.3629 9.118 11.6486 9.118 12.0866V19.0191ZM5.39464 20H18.2788C19.631 20 20.4214 19.2286 20.4214 17.8955V7.37292L18.8882 6.32543V17.5051C18.8882 18.124 18.5549 18.4668 17.955 18.4668H5.71841C5.10896 18.4668 4.77568 18.124 4.77568 17.5051V6.33494L3.24252 7.37292V17.8955C3.24252 19.2286 4.03291 20 5.39464 20ZM0.5 9.40124C0.5 9.79167 0.804725 10.1631 1.31895 10.1631C1.58558 10.1631 1.8046 10.0202 2.00458 9.85836L11.5368 1.8593C11.7463 1.66885 12.0034 1.66885 12.2128 1.8593L21.745 9.85836C21.9355 10.0202 22.1545 10.1631 22.4212 10.1631C22.8688 10.1631 23.2305 9.88694 23.2305 9.42981C23.2305 9.14413 23.1354 8.95368 22.9354 8.78227L13.0223 0.449946C12.3176 -0.149982 11.4415 -0.149982 10.7274 0.449946L0.804725 8.78227C0.595227 8.95368 0.5 9.18222 0.5 9.40124ZM18.0312 5.10653L20.4214 7.12533V2.72586C20.4214 2.30686 20.1547 2.04023 19.7358 2.04023H18.7168C18.3073 2.04023 18.0312 2.30686 18.0312 2.72586V5.10653Z" fill="#DEB236" fill-opacity="0.95"/>
</svg>
