<svg width="22" height="20" viewBox="0 0 22 20" fill="none" xmlns="http://www.w3.org/2000/svg">
<path d="M1.64547 19.6046C1.89889 19.6046 2.16244 19.5134 2.48682 19.3309L7.64647 16.5535L13.2522 19.6959C13.617 19.8986 14.0124 20 14.3875 20C14.7422 20 15.097 19.9088 15.4012 19.7364L20.7027 16.7258C21.3109 16.3912 21.5846 15.9047 21.5846 15.2256V1.57121C21.5846 0.821084 21.169 0.405473 20.4392 0.405473C20.1857 0.405473 19.9221 0.486568 19.5877 0.669031L14.2151 3.6594L8.71084 0.283832C8.39659 0.101368 8.0418 0 7.68702 0C7.32209 0 6.95716 0.101368 6.64292 0.283832L1.37177 3.28433C0.773695 3.62898 0.5 4.11555 0.5 4.79472V18.4288C0.5 19.1789 0.915611 19.6046 1.64547 19.6046ZM6.98757 14.9417L2.41586 17.4556C2.36518 17.4759 2.3145 17.5063 2.26381 17.5063C2.18271 17.5063 2.13204 17.4455 2.13204 17.3441V5.19006C2.13204 4.94677 2.22327 4.77445 2.46654 4.63253L6.62265 2.19969C6.75443 2.12873 6.86593 2.06792 6.98757 1.99696V14.9417ZM8.61961 15.1039V2.20983C8.72097 2.27065 8.84262 2.33147 8.94399 2.3923L13.465 5.14952V17.8206C13.3231 17.7394 13.171 17.6685 13.0189 17.5875L8.61961 15.1039ZM15.097 18.0031V5.04814L19.6688 2.55449C19.7194 2.52407 19.7702 2.5038 19.8107 2.5038C19.9019 2.5038 19.9526 2.56462 19.9526 2.66599V14.82C19.9526 15.0735 19.8512 15.2458 19.6181 15.3877L15.5532 17.7496C15.4012 17.8408 15.2491 17.9321 15.097 18.0031Z" fill="#AEAEB2" fill-opacity="0.95"/>
</svg>
