<svg width="21" height="22" viewBox="0 0 21 22" fill="none" xmlns="http://www.w3.org/2000/svg">
<path d="M1.89838 17.2586L9.75929 21.7579C10.3186 22.0807 10.848 22.0807 11.4174 21.7579L19.2682 17.2586C20.1872 16.7239 20.6667 16.1993 20.6667 14.7566V6.76672C20.6667 5.71754 20.287 5.07189 19.4481 4.57756L12.3762 0.522069C11.1676 -0.174023 9.99896 -0.174023 8.79039 0.522069L1.72858 4.57756C0.87956 5.07189 0.5 5.71754 0.5 6.76672V14.7566C0.5 16.1993 0.989433 16.7239 1.89838 17.2586ZM2.79734 15.9269C2.218 15.594 2.01824 15.261 2.01824 14.7062V7.08954L9.79926 11.5788V19.9521L2.79734 15.9269ZM18.3793 15.9269L11.3674 19.9521V11.5788L19.1484 7.08954V14.7062C19.1484 15.261 18.9486 15.594 18.3793 15.9269ZM10.5883 10.1665L2.87724 5.75788L5.96367 3.97226L13.6747 8.40101L10.5883 10.1665ZM15.2829 7.48298L7.54184 3.06432L9.4596 1.96469C10.2288 1.52081 10.9379 1.51072 11.717 1.96469L18.2994 5.75788L15.2829 7.48298Z" fill="#AEAEB2" fill-opacity="0.95"/>
</svg>
