<svg width="22" height="20" viewBox="0 0 22 20" fill="none" xmlns="http://www.w3.org/2000/svg">
<path d="M0.5 17.1748C0.5 19.0302 1.42308 19.9906 3.31585 19.9906H18.775C20.7331 19.9906 21.7027 19.0302 21.7027 17.1095V2.89043C21.7027 0.969691 20.7331 0 18.775 0H7.53962C5.5909 0 4.61188 0.969691 4.61188 2.89043V7.33799H2.38345C1.1993 7.33799 0.5 7.98134 0.5 9.09089V17.1748ZM2.00117 17.1748V9.37994C2.00117 9.03495 2.20629 8.83914 2.55128 8.83914H4.61188V17.1748C4.61188 17.9487 4.04312 18.4894 3.31585 18.4894C2.57925 18.4894 2.00117 17.9207 2.00117 17.1748ZM5.79603 18.4894C6.00116 18.0885 6.11305 17.6223 6.11305 17.0815V2.97435C6.11305 2.00466 6.63519 1.50117 7.56758 1.50117H18.747C19.6795 1.50117 20.2016 2.00466 20.2016 2.97435V17.0256C20.2016 17.9954 19.6795 18.4894 18.747 18.4894H5.79603ZM8.53728 5.5571H17.796C18.1223 5.5571 18.3741 5.29603 18.3741 4.96969C18.3741 4.65268 18.1223 4.41025 17.796 4.41025H8.53728C8.20162 4.41025 7.94987 4.65268 7.94987 4.96969C7.94987 5.29603 8.20162 5.5571 8.53728 5.5571ZM8.53728 8.83914H17.796C18.1223 8.83914 18.3741 8.5874 18.3741 8.27038C18.3741 7.94404 18.1223 7.69229 17.796 7.69229H8.53728C8.20162 7.69229 7.94987 7.94404 7.94987 8.27038C7.94987 8.5874 8.20162 8.83914 8.53728 8.83914ZM9.0874 15.4871H11.5023C12.2109 15.4871 12.6398 15.0583 12.6398 14.3496V12.1305C12.6398 11.4125 12.2109 10.9837 11.5023 10.9837H9.0874C8.36945 10.9837 7.94055 11.4125 7.94055 12.1305V14.3496C7.94055 15.0583 8.36945 15.4871 9.0874 15.4871ZM14.3182 12.1305H17.7867C18.1223 12.1305 18.3647 11.8881 18.3647 11.571C18.3647 11.2354 18.1223 10.9837 17.7867 10.9837H14.3182C13.9825 10.9837 13.7401 11.2354 13.7401 11.571C13.7401 11.8881 13.9825 12.1305 14.3182 12.1305ZM14.3182 15.4871H17.7867C18.1223 15.4871 18.3647 15.2447 18.3647 14.9277C18.3647 14.6014 18.1223 14.3403 17.7867 14.3403H14.3182C13.9825 14.3403 13.7401 14.6014 13.7401 14.9277C13.7401 15.2447 13.9825 15.4871 14.3182 15.4871Z" fill="#AEAEB2" fill-opacity="0.95"/>
</svg>
