<svg width="20" height="20" viewBox="0 0 20 20" fill="none" xmlns="http://www.w3.org/2000/svg">
<path d="M2.8048 20H17.1952C19.0956 20 20 19.4601 20 18.2721C20 15.4428 16.2107 11.3499 10.0057 11.3499C3.78935 11.3499 0 15.4428 0 18.2721C0 19.4601 0.904405 20 2.8048 20ZM2.26674 18.3694C1.96908 18.3694 1.84316 18.2938 1.84316 18.067C1.84316 16.2959 4.75099 12.9806 10.0057 12.9806C15.249 12.9806 18.1568 16.2959 18.1568 18.067C18.1568 18.2938 18.0424 18.3694 17.7447 18.3694H2.26674ZM10.0057 10.0108C12.7303 10.0108 14.9513 7.72139 14.9513 4.93522C14.9513 2.17063 12.7418 0 10.0057 0C7.29248 0 5.06009 2.21383 5.06009 4.95681C5.07154 7.73219 7.28103 10.0108 10.0057 10.0108ZM10.0057 8.38015C8.33427 8.38015 6.90325 6.86826 6.90325 4.95681C6.90325 3.07776 8.31137 1.63067 10.0057 1.63067C11.7115 1.63067 13.1082 3.05616 13.1082 4.93522C13.1082 6.84667 11.6885 8.38015 10.0057 8.38015Z" fill="#AEAEB2" fill-opacity="0.95"/>
</svg>
